Coordinates
version=1
nRows=13
nColumns=36
inDegrees=yes

Units are S.I. units (second, meters, Newtons, ...)
If the header above contains a line with 'inDegrees', this indicates whether rotational values are in degrees (yes) or radians (no).

endheader
time	pelvis_tilt	pelvis_list	pelvis_rotation	pelvis_tx	pelvis_ty	pelvis_tz	hip_flexion_r	hip_adduction_r	hip_rotation_r	knee_angle_r	knee_angle_r_beta	ankle_angle_r	subtalar_angle_r	mtp_angle_r	hip_flexion_l	hip_adduction_l	hip_rotation_l	knee_angle_l	knee_angle_l_beta	ankle_angle_l	subtalar_angle_l	mtp_angle_l	lumbar_extension	lumbar_bending	lumbar_rotation	arm_flex_r	arm_add_r	arm_rot_r	elbow_flex_r	pro_sup_r	arm_flex_l	arm_add_l	arm_rot_l	elbow_flex_l	pro_sup_l
      3.55000000	    -17.51374911	      2.97238301	     -3.56783830	     -0.80368455	      1.22271599	     -0.05428318	     30.45336677	      2.39072835	     12.34693550	     55.13337656	      0.96225895	     25.28282476	    -25.35331631	     -7.49999987	     29.46964864	      2.54652684	      2.07769423	     55.92696749	      0.97610972	     27.30973847	    -13.99010348	     -7.49999987	    -26.47745023	      4.91848422	     -1.14392606	     69.26742427	    -14.91720395	     38.37555497	     66.69883884	     93.59272105	     47.10493158	    -36.28134409	    -12.07895943	    124.03017423	     79.44157257
      3.56666670	    -17.72921836	      2.50389465	     -3.83969832	     -0.76871103	      1.23754217	     -0.05204880	     27.53656177	      1.99912489	     10.99148661	     51.75921186	      0.90336867	     23.97752817	    -23.61246585	     -7.49999987	     26.01200374	      1.76032914	      1.83448175	     52.28367133	      0.91252221	     26.13999794	    -13.85414310	     -7.49999987	    -21.98411929	      6.06423166	     -1.03013335	     74.07137632	    -15.83662496	     45.22291021	     62.48029851	     90.06842618	     49.84485452	    -41.52516940	    -10.15142945	    128.75113834	     78.17757956
      3.58333330	    -17.60940616	      2.16132148	     -3.33715041	     -0.74225327	      1.24857357	     -0.05479031	     23.84419778	      1.06751969	      9.14484235	     47.97021014	      0.83723811	     22.22308138	    -22.27469009	     -7.49999987	     22.37513293	      1.37275328	      1.69853578	     48.76667769	      0.85113909	     24.09438459	    -13.59053331	     -7.49999987	    -17.79977874	      6.53003485	     -1.15599430	     77.30433114	    -18.72616449	     51.52258524	     60.47340319	     88.19963488	     56.46367544	    -46.01082413	     -5.84302636	    130.91668236	     77.27413532
      3.60000000	    -18.35976652	      1.91682961	     -2.93271987	     -0.72744292	      1.26233942	     -0.05678204	     22.13134982	      0.30322605	      7.26099824	     44.76229294	      0.78124939	     19.80649124	    -20.12615509	     -7.49999987	     20.58174350	      0.93722272	      1.58162196	     45.44142658	      0.79310251	     21.11323412	    -13.43614639	     -7.49999987	    -13.25655026	      7.05837402	     -0.38317586	     82.01828108	    -21.27631890	     57.76147217	     56.28992129	     86.15150445	     65.00103056	    -46.35648004	      0.07869634	    134.22275395	     76.83120728
      3.61666670	    -18.40232652	      1.86299607	     -2.76408587	     -0.68902626	      1.28643880	     -0.03976040	     18.15184313	      0.04128340	      6.15810684	     39.51487122	      0.68966461	     16.17729673	    -17.48290997	     -7.49999987	     17.51946089	      0.15029674	      0.78321702	     41.28012662	      0.72047413	     16.78858908	    -12.87126508	     -7.49999987	     -9.84136805	      6.53233258	      1.49614152	     83.58050658	    -23.85049720	     56.72096495	     54.43669191	     82.66512756	     70.50524007	    -45.80795141	      3.81262462	    136.26754693	     75.74807030
      3.63333330	    -18.40619414	      1.91382386	     -1.54194181	     -0.66898127	      1.29107725	     -0.03810349	     14.95410756	     -0.20701753	      4.60923021	     35.63769294	      0.62199508	     13.12892761	    -16.56656718	     -7.49999987	     16.22254989	     -0.31552997	      0.87119882	     39.53385047	      0.68999586	     11.81486301	    -13.43269368	     -7.49999987	     -7.27565572	      5.43053179	      2.20624917	     85.35096616	    -26.90038421	     54.49178549	     53.88312982	     80.53438512	     83.68252848	    -45.06823707	     14.20244784	    133.50246527	     74.94302779
      3.65000000	    -18.28079279	      2.98301278	     -1.84988157	     -0.63107087	      1.32505477	     -0.05808541	     10.86594091	     -2.38368583	      3.91887526	     30.41869031	      0.53090630	      7.25160428	    -13.08747712	     -7.49999987	     14.49760322	      1.19211650	      1.23976792	     37.18600189	      0.64901817	      3.98461333	    -14.45537711	     -7.49999987	     -4.95619173	      4.44437076	      3.59129532	     85.75916367	    -30.49247862	     54.90535117	     52.28601278	     78.97932805	     86.39268792	    -44.80272908	     18.49009261	    133.44153740	     75.42945239
      3.66666670	    -18.33230492	      4.12535043	     -1.65077535	     -0.58856139	      1.33768102	     -0.03746635	      6.09895778	     -3.87761989	      2.54412933	     24.16820345	      0.42181472	      0.52218395	    -10.19704530	     -7.49999987	     13.04555150	      1.84074605	     -0.61293936	     35.23371484	      0.61494433	     -5.54026523	    -15.58272110	     -7.49999987	     -1.92694119	      2.27762922	      2.40258587	     83.94532990	    -31.25219378	     55.83711337	     51.20818437	     78.83727474	     86.93947565	    -48.25107245	     19.34104614	    133.61320376	     75.44701472
      3.68333330	    -18.33072832	      5.29975645	     -1.11016107	     -0.57103036	      1.35712587	     -0.03438803	      3.45069296	     -5.47586267	      1.61417761	     20.03486475	      0.34967436	     -6.53736887	     -6.92539495	     -7.49999987	     13.53932152	      2.57610689	     -2.41484946	     35.19663191	      0.61429711	    -15.06579527	    -16.53167553	     -7.49999987	      0.08311389	      0.26400914	     -0.15421913	     80.79225975	    -29.91543420	     52.28656111	     51.49315764	     77.63510498	     89.15575461	    -51.44868823	     21.54043256	    130.76763630	     74.61295295
      3.70000000	    -17.56666696	      5.95121833	     -1.49183474	     -0.54058428	      1.38302349	     -0.02196432	      1.28645470	     -6.01189486	      1.53918204	     17.35788805	      0.30295230	    -15.08439592	     -4.58927871	     -7.49999987	     13.54474191	      2.65283362	     -3.76794477	     35.54656158	      0.62040454	    -24.96085478	    -17.51604911	     -7.49999987	      0.89139678	     -1.34987259	     -0.85687230	     76.91011364	    -29.44952064	     48.58276924	     52.98418777	     77.25138772	     87.38017665	    -55.02437785	     19.97168622	    130.77531673	     73.79204199
      3.71666670	    -16.66406914	      7.04083194	     -0.50317551	     -0.50979667	      1.39718776	     -0.02992968	     -0.24613247	     -6.98676371	      2.51890803	     16.42325051	      0.28663980	    -22.93535999	     -4.43430454	     -7.49999987	     15.18349754	      3.76214899	     -4.34220007	     38.13870882	      0.66564604	    -31.61310219	    -18.64518232	     -7.49999987	      1.07544664	     -3.44430019	     -1.10605092	     71.65219574	    -34.64111184	     44.31962223	     57.20095674	     77.44792956	     84.38974437	    -55.22134373	     18.49547504	    131.11490610	     72.39155188
      3.73333330	    -15.26197840	      8.03133368	     -0.78207978	     -0.47868737	      1.41243028	     -0.03747337	     -1.28684858	     -8.51767779	      3.73703667	     16.61995139	      0.29007287	    -28.78255812	     -2.73722866	     -7.49999987	     16.98033038	      5.50412233	     -4.99310898	     41.58739858	      0.72583703	    -32.72036867	    -21.49823669	     -7.49999987	      0.72898564	     -4.97024764	      2.00407892	     64.81236756	    -42.35133499	     38.47371031	     60.39638047	     80.08646210	     80.62290440	    -52.82467525	     19.40397996	    127.34946954	     72.52536607
      3.75000000	    -13.91875419	      8.13611810	     -1.32243405	     -0.44921352	      1.42870471	     -0.02476911	     -1.79666226	     -8.64958339	      4.55792247	     16.83474603	      0.29382175	    -32.54356095	     -0.78177994	     -7.49999987	     17.76602860	      5.21507035	     -7.52142783	     43.98752060	      0.76772706	    -33.32580866	    -21.82204368	     -7.49999987	     -0.14565586	     -5.61995980	      4.36927930	     56.10633364	    -47.83309094	     32.06780850	     66.22708711	     80.80443032	     75.62859897	    -52.47355296	     18.74989176	    125.89535661	     73.96613768
